<svg width="17" height="18" viewBox="0 0 17 18" fill="none" xmlns="http://www.w3.org/2000/svg">
<path fill-rule="evenodd" clip-rule="evenodd" d="M7.71282 10.7232L10.7603 15.6673C10.8937 15.884 11.102 15.8815 11.1862 15.8698C11.2703 15.8582 11.4728 15.8065 11.5462 15.5607L15.357 2.68985C15.4237 2.46235 15.3012 2.30735 15.2462 2.25235C15.1928 2.19735 15.0403 2.07985 14.8195 2.14235L1.93949 5.91402C1.69532 5.98568 1.64199 6.19068 1.63032 6.27485C1.61865 6.36068 1.61532 6.57318 1.83115 6.70902L6.83199 9.83652L11.2503 5.37152C11.4928 5.12652 11.8887 5.12402 12.1345 5.36652C12.3803 5.60902 12.382 6.00568 12.1395 6.25068L7.71282 10.7232ZM11.1212 17.1248C10.5412 17.1248 10.0095 16.8298 9.69615 16.3232L6.46532 11.0807L1.16865 7.76818C0.59782 7.41068 0.299487 6.77402 0.391987 6.10485C0.483654 5.43568 0.94282 4.90402 1.58782 4.71485L14.4678 0.943184C15.0603 0.76985 15.6953 0.934017 16.132 1.36902C16.5687 1.80818 16.7312 2.44985 16.5545 3.04485L12.7437 15.9149C12.5528 16.5624 12.0195 17.0198 11.352 17.109C11.2737 17.119 11.1978 17.1248 11.1212 17.1248Z" fill="white"/>
</svg>
