<svg width="19" height="17" viewBox="0 0 19 17" fill="none" xmlns="http://www.w3.org/2000/svg">
<path d="M14.5046 4.0032H17.13C17.3621 4.0032 17.5847 4.0954 17.7488 4.25952C17.913 4.42364 18.0052 4.64623 18.0052 4.87833V15.3799C18.0052 15.612 17.913 15.8346 17.7488 15.9987C17.5847 16.1628 17.3621 16.255 17.13 16.255H1.37769C1.14559 16.255 0.923001 16.1628 0.758883 15.9987C0.594764 15.8346 0.502563 15.612 0.502563 15.3799V1.37781C0.502563 1.14572 0.594764 0.923124 0.758883 0.759005C0.923001 0.594886 1.14559 0.502686 1.37769 0.502686H14.5046V4.0032ZM2.25282 5.75346V14.5048H16.2549V5.75346H2.25282ZM2.25282 2.25294V4.0032H12.7544V2.25294H2.25282ZM11.8792 9.25398H14.5046V11.0042H11.8792V9.25398Z" fill="white"/>
</svg>
