<svg width="138" height="138" viewBox="0 0 138 138" fill="none" xmlns="http://www.w3.org/2000/svg">
<path d="M103.5 40.25H120.75C122.275 40.25 123.738 40.8558 124.816 41.9341C125.894 43.0125 126.5 44.475 126.5 46V115C126.5 116.525 125.894 117.988 124.816 119.066C123.738 120.144 122.275 120.75 120.75 120.75H17.25C15.725 120.75 14.2625 120.144 13.1841 119.066C12.1058 117.988 11.5 116.525 11.5 115V23C11.5 21.475 12.1058 20.0125 13.1841 18.9341C14.2625 17.8558 15.725 17.25 17.25 17.25H103.5V40.25ZM23 51.75V109.25H115V51.75H23ZM23 28.75V40.25H92V28.75H23ZM86.25 74.75H103.5V86.25H86.25V74.75Z" fill="white"/>
</svg>
